<?xml version="1.0" encoding="UTF-8"?>
<svg version="1.1" xmlns="http://www.w3.org/2000/svg" width="192" height="192">
<path d="M0 0 C3.08921053 0.47326289 6.0723438 0.35704694 9.1953125 0.29296875 C15.15696105 0.23515104 20.55570101 0.86782707 26.3203125 2.35546875 C26.3203125 3.01546875 26.3203125 3.67546875 26.3203125 4.35546875 C27.4959375 4.57203125 27.4959375 4.57203125 28.6953125 4.79296875 C31.3203125 5.35546875 31.3203125 5.35546875 33.3203125 6.35546875 C33.3203125 7.01546875 33.3203125 7.67546875 33.3203125 8.35546875 C34.0215625 8.43796875 34.7228125 8.52046875 35.4453125 8.60546875 C39.0048877 9.53405359 41.32807369 11.23596626 44.3203125 13.35546875 C45.58875 14.06703125 45.58875 14.06703125 46.8828125 14.79296875 C53.42900479 18.98924586 58.13533039 25.68782021 62.0703125 32.29296875 C63.15395376 34.49442297 63.15395376 34.49442297 65.3203125 35.35546875 C65.3203125 37.33546875 65.3203125 39.31546875 65.3203125 41.35546875 C66.3103125 41.68546875 67.3003125 42.01546875 68.3203125 42.35546875 C70.53223651 48.37681743 70.68322556 54.53986295 70.89111328 60.89477539 C70.93448903 65.08012657 70.93448903 65.08012657 73.3203125 68.35546875 C73.4453125 70.98046875 73.4453125 70.98046875 73.3203125 73.35546875 C72.6603125 73.35546875 72.0003125 73.35546875 71.3203125 73.35546875 C71.36671875 73.938125 71.413125 74.52078125 71.4609375 75.12109375 C72.14779839 90.72264824 63.41390899 105.00319835 53.3203125 116.35546875 C50.6328125 118.66796875 50.6328125 118.66796875 48.3203125 120.35546875 C47.6190625 121.09796875 46.9178125 121.84046875 46.1953125 122.60546875 C44.3203125 124.35546875 44.3203125 124.35546875 41.3203125 124.35546875 C41.3203125 125.34546875 41.3203125 126.33546875 41.3203125 127.35546875 C39.3403125 127.68546875 37.3603125 128.01546875 35.3203125 128.35546875 C34.9903125 129.34546875 34.6603125 130.33546875 34.3203125 131.35546875 C33.2271875 131.43796875 32.1340625 131.52046875 31.0078125 131.60546875 C27.42234823 132.02617997 24.51787904 133.02495196 21.1953125 134.41796875 C15.47808695 136.64400335 10.36756538 136.64722578 4.2890625 136.3984375 C1.26277117 136.191358 1.26277117 136.191358 -1.6796875 137.35546875 C-3.36069379 136.72583388 -5.02477829 136.05080876 -6.6796875 135.35546875 C-8.53417475 134.91296637 -10.38928777 134.47230107 -12.2512207 134.06225586 C-21.39676661 132.02785848 -29.9863155 129.23791905 -36.6796875 122.35546875 C-37.6078125 121.79859375 -38.5359375 121.24171875 -39.4921875 120.66796875 C-44.20666143 117.24766413 -47.82482031 112.92007031 -49.6796875 107.35546875 C-50.3396875 107.35546875 -50.9996875 107.35546875 -51.6796875 107.35546875 C-52.59114583 105.5 -53.50260417 103.64453125 -54.4140625 101.7890625 C-55.42877385 99.83793543 -56.55337181 97.94413256 -57.7109375 96.07421875 C-59.87890445 92.30051904 -60.73060065 88.68239855 -61.4296875 84.41796875 C-61.55472656 83.75345703 -61.67976563 83.08894531 -61.80859375 82.40429688 C-63.01713359 75.55811789 -62.86659667 69.21316617 -61.6796875 62.35546875 C-61.64230469 61.49179688 -61.60492188 60.628125 -61.56640625 59.73828125 C-61.08088232 49.05675489 -57.20444166 40.37923388 -51.6796875 31.35546875 C-51.1640625 30.44796875 -50.6484375 29.54046875 -50.1171875 28.60546875 C-48.76721792 26.49247288 -47.51129377 25.04618223 -45.6796875 23.35546875 C-42.25094506 20.17714016 -42.25094506 20.17714016 -39.6796875 16.35546875 C-38.6896875 16.35546875 -37.6996875 16.35546875 -36.6796875 16.35546875 C-36.6796875 15.69546875 -36.6796875 15.03546875 -36.6796875 14.35546875 C-35.6896875 14.35546875 -34.6996875 14.35546875 -33.6796875 14.35546875 C-33.6796875 13.36546875 -33.6796875 12.37546875 -33.6796875 11.35546875 C-27.0546875 7.35546875 -27.0546875 7.35546875 -23.6796875 7.35546875 C-23.6796875 6.69546875 -23.6796875 6.03546875 -23.6796875 5.35546875 C-21.0396875 5.35546875 -18.3996875 5.35546875 -15.6796875 5.35546875 C-15.6796875 4.69546875 -15.6796875 4.03546875 -15.6796875 3.35546875 C-6.05787352 -1.23855309 -6.05787352 -1.23855309 0 0 Z M-16.6796875 10.35546875 C-19.6171875 11.04296875 -19.6171875 11.04296875 -21.6796875 11.35546875 C-21.6796875 12.01546875 -21.6796875 12.67546875 -21.6796875 13.35546875 C-23.6596875 14.01546875 -25.6396875 14.67546875 -27.6796875 15.35546875 C-27.6796875 16.01546875 -27.6796875 16.67546875 -27.6796875 17.35546875 C-28.3396875 17.54109375 -28.9996875 17.72671875 -29.6796875 17.91796875 C-33.93264859 19.95584594 -37.52575523 22.84153429 -40.6796875 26.35546875 C-40.6796875 27.34546875 -40.6796875 28.33546875 -40.6796875 29.35546875 C-41.3396875 29.35546875 -41.9996875 29.35546875 -42.6796875 29.35546875 C-44.97617399 31.91693445 -45.6796875 32.83514447 -45.6796875 36.35546875 C-46.3396875 36.35546875 -46.9996875 36.35546875 -47.6796875 36.35546875 C-54.0169661 48.14696255 -58.15131499 62.00868032 -55.6796875 75.35546875 C-55.59251905 77.00110342 -55.50929211 78.64695085 -55.4296875 80.29296875 C-54.94737523 85.30585365 -53.15236844 89.32858817 -50.93359375 93.8125 C-49.71356501 96.28676389 -48.67268321 98.78291707 -47.6796875 101.35546875 C-47.0196875 101.35546875 -46.3596875 101.35546875 -45.6796875 101.35546875 C-44.1796875 104.35546875 -44.1796875 104.35546875 -42.6796875 107.35546875 C-42.0196875 107.35546875 -41.3596875 107.35546875 -40.6796875 107.35546875 C-40.4321875 108.43828125 -40.4321875 108.43828125 -40.1796875 109.54296875 C-38.25453191 113.15263549 -35.9663935 114.29395204 -32.45703125 116.2421875 C-30.6796875 117.35546875 -30.6796875 117.35546875 -29.6796875 119.35546875 C-26.46949712 121.26212728 -23.06565073 122.78728272 -19.6796875 124.35546875 C-18.86628906 124.73316406 -18.05289063 125.11085938 -17.21484375 125.5 C-4.13954679 131.15819172 9.92696416 132.32772287 23.3203125 127.35546875 C24.16722656 127.04222656 25.01414062 126.72898437 25.88671875 126.40625 C36.01423981 122.8152851 36.01423981 122.8152851 44.3203125 116.35546875 C44.3203125 115.69546875 44.3203125 115.03546875 44.3203125 114.35546875 C45.3103125 114.35546875 46.3003125 114.35546875 47.3203125 114.35546875 C47.3203125 113.36546875 47.3203125 112.37546875 47.3203125 111.35546875 C48.3103125 111.02546875 49.3003125 110.69546875 50.3203125 110.35546875 C50.3203125 109.69546875 50.3203125 109.03546875 50.3203125 108.35546875 C51.2175 108.04609375 51.2175 108.04609375 52.1328125 107.73046875 C55.1586552 105.82851048 55.96739752 103.60246471 57.3203125 100.35546875 C57.3203125 99.69546875 57.3203125 99.03546875 57.3203125 98.35546875 C57.9803125 98.35546875 58.6403125 98.35546875 59.3203125 98.35546875 C59.6503125 96.70546875 59.9803125 95.05546875 60.3203125 93.35546875 C60.9803125 93.35546875 61.6403125 93.35546875 62.3203125 93.35546875 C66.61303136 80.55651361 70.02998926 67.92469621 67.3203125 54.35546875 C66.6603125 54.35546875 66.0003125 54.35546875 65.3203125 54.35546875 C65.52269531 53.78699219 65.72507812 53.21851563 65.93359375 52.6328125 C66.42189631 49.75725297 65.78105606 48.5139459 64.5078125 45.91796875 C64.13011719 45.12777344 63.75242187 44.33757812 63.36328125 43.5234375 C63.01910156 42.80800781 62.67492187 42.09257813 62.3203125 41.35546875 C61.8253125 40.05609375 61.8253125 40.05609375 61.3203125 38.73046875 C59.43745494 34.25868204 57.22950798 29.37621071 53.3203125 26.35546875 C52.6603125 26.35546875 52.0003125 26.35546875 51.3203125 26.35546875 C50.3303125 24.37546875 50.3303125 24.37546875 49.3203125 22.35546875 C48.6603125 22.35546875 48.0003125 22.35546875 47.3203125 22.35546875 C47.3203125 21.69546875 47.3203125 21.03546875 47.3203125 20.35546875 C44.68346503 17.9572657 44.68346503 17.9572657 41.3203125 17.35546875 C41.3203125 16.69546875 41.3203125 16.03546875 41.3203125 15.35546875 C39.3403125 15.02546875 37.3603125 14.69546875 35.3203125 14.35546875 C34.8253125 12.87046875 34.8253125 12.87046875 34.3203125 11.35546875 C17.47525276 3.48806016 0.33713941 2.82879531 -16.6796875 10.35546875 Z " fill="#000000" transform="translate(90.6796875,27.64453125)"/>
<path d="M0 0 C3.3906508 2.97252122 4.02887577 5.13329908 4.5 9.6875 C4.48052086 14.92738808 1.90479819 18.77366851 -0.875 23.0625 C-1.535 23.0625 -2.195 23.0625 -2.875 23.0625 C-3.09929687 23.58328125 -3.32359375 24.1040625 -3.5546875 24.640625 C-5.36943726 27.96945593 -7.66442244 30.8353295 -10 33.8125 C-12.413125 36.90625 -12.413125 36.90625 -14.875 40.0625 C-7.285 40.3925 0.305 40.7225 8.125 41.0625 C9.115 44.0325 9.115 44.0325 10.125 47.0625 C9.465 48.0525 8.805 49.0425 8.125 50.0625 C7.465 50.0625 6.805 50.0625 6.125 50.0625 C2.78395322 58.20630152 4.10734562 66.19586554 5.625 74.625 C8.4787858 90.55220992 8.4787858 90.55220992 5.125 97.0625 C4.125 98.0625 4.125 98.0625 0.3125 98.4375 C-3.02701111 98.38354022 -3.67252955 98.22953812 -6.375 96 C-8.2107464 92.40499664 -8.32636876 90.04959073 -7.875 86.0625 C-7.215 85.4025 -6.555 84.7425 -5.875 84.0625 C-5.875 85.7125 -5.875 87.3625 -5.875 89.0625 C-5.215 89.0625 -4.555 89.0625 -3.875 89.0625 C-3.545 90.3825 -3.215 91.7025 -2.875 93.0625 C-1.885 93.0625 -0.895 93.0625 0.125 93.0625 C0.47788951 86.94574843 -0.56799683 81.92039869 -2.140625 76.015625 C-4.36429941 67.07361513 -5.35005983 56.75014959 -1.875 48.0625 C0.203125 46.3671875 0.203125 46.3671875 2.125 45.0625 C0.61655518 45.07035522 0.61655518 45.07035522 -0.92236328 45.07836914 C-19.59852001 45.16715694 -38.22553997 45.22420163 -56.875 44.0625 C-56.545 43.0725 -56.215 42.0825 -55.875 41.0625 C-52.93368109 40.08206036 -51.04998335 39.94628798 -47.98828125 39.96484375 C-47.05048828 39.96806641 -46.11269531 39.97128906 -45.14648438 39.97460938 C-43.68178711 39.98717773 -43.68178711 39.98717773 -42.1875 40 C-41.19943359 40.00451172 -40.21136719 40.00902344 -39.19335938 40.01367188 C-36.75384526 40.02545697 -34.31445311 40.04190989 -31.875 40.0625 C-32.21490967 39.46356934 -32.55481934 38.86463867 -32.9050293 38.24755859 C-33.35273682 37.45172363 -33.80044434 36.65588867 -34.26171875 35.8359375 C-34.70475342 35.05138184 -35.14778809 34.26682617 -35.60424805 33.45849609 C-40.0391052 25.09659637 -41.37749042 16.60293341 -38.875 7.375 C-38.545 6.611875 -38.215 5.84875 -37.875 5.0625 C-37.215 5.0625 -36.555 5.0625 -35.875 5.0625 C-35.875 4.0725 -35.875 3.0825 -35.875 2.0625 C-33.02365261 -1.73929652 -28.62267552 -3.50058112 -24.125 -4.625 C-15.33364786 -5.47032232 -7.17452914 -5.86477737 0 0 Z M-29.875 7.0625 C-32.79322537 10.68512459 -33.20294157 13.50949432 -33.17578125 18 C-32.8023908 20.56039167 -31.84427348 22.66389932 -30.875 25.0625 C-30.31916092 27.28319681 -29.79964168 29.51322903 -29.3125 31.75 C-28.44455691 36.03003928 -28.44455691 36.03003928 -26.875 40.0625 C-24.97966658 40.52773063 -24.97966658 40.52773063 -22.8125 40.6875 C-20.8634375 40.873125 -20.8634375 40.873125 -18.875 41.0625 C-18.524375 40.11375 -18.17375 39.165 -17.8125 38.1875 C-15.25107913 32.20682392 -11.23146365 26.93329202 -7.12109375 21.92578125 C-3.29783694 17.23653374 -1.9784678 14.16709993 -1.875 8.0625 C-2.60445795 5.00135733 -2.60445795 5.00135733 -4.8125 3.4375 C-13.50450641 -0.46503349 -22.88832176 0.26989616 -29.875 7.0625 Z " fill="#000000" transform="translate(119.875,45.9375)"/>
<path d="M0 0 C0 0.66 0 1.32 0 2 C0.99 2 1.98 2 3 2 C2.67 3.32 2.34 4.64 2 6 C1.34 6 0.68 6 0 6 C-2.01986048 10.92535209 -2.14492584 15.1552087 -1.75 20.375 C-1.70133789 21.15649414 -1.65267578 21.93798828 -1.60253906 22.74316406 C-1.33313034 26.69502337 -0.94652845 30.60364747 -0.375 34.5234375 C-0.27219727 35.23580566 -0.16939453 35.94817383 -0.06347656 36.68212891 C0.23338104 38.64037179 0.56110446 40.59386301 0.890625 42.546875 C1.01880652 46.59374883 0.1829395 48.62728286 -2 52 C-4.3125 53.0625 -4.3125 53.0625 -7 53 C-12.63855422 50.72289157 -12.63855422 50.72289157 -14 48 C-14.06950541 46.45976004 -14.08452357 44.91665012 -14.0625 43.375 C-14.05347656 42.55773437 -14.04445313 41.74046875 -14.03515625 40.8984375 C-14.02355469 40.27195313 -14.01195313 39.64546875 -14 39 C-13.34 39 -12.68 39 -12 39 C-12 40.32 -12 41.64 -12 43 C-11.34 43 -10.68 43 -10 43 C-9.67 44.65 -9.34 46.3 -9 48 C-7.515 47.505 -7.515 47.505 -6 47 C-5.81684089 42.32944273 -6.21461983 39.26507485 -8 35 C-9.86379963 28.76634583 -10.20469002 22.58647792 -10.25 16.125 C-10.25918457 15.38733398 -10.26836914 14.64966797 -10.27783203 13.88964844 C-10.25631303 10.1315707 -10.23300364 7.1113184 -8 4 C-2.66666667 0 -2.66666667 0 0 0 Z " fill="#000000" transform="translate(110,93)"/>
<path d="M0 0 C1.16402344 0.13148437 1.16402344 0.13148437 2.3515625 0.265625 C4.375 0.75 4.375 0.75 6.375 2.75 C3.04106629 3.96973185 0.17540015 4.76995999 -3.375 5.125 C-4.98375 5.434375 -4.98375 5.434375 -6.625 5.75 C-8.35372341 8.43580211 -9.11561654 11.21582236 -9.8125 14.3125 C-9.99167969 15.07691406 -10.17085938 15.84132813 -10.35546875 16.62890625 C-10.80412888 18.93477074 -10.80412888 18.93477074 -9.625 21.75 C-2.25076877 22.23267508 -2.25076877 22.23267508 4.75 20.25 C8.04121575 17.11550881 10.19970101 13.71558931 12.375 9.75 C13.035 10.08 13.695 10.41 14.375 10.75 C12.73558473 17.3508036 11.02342118 20.85886541 5.375 24.75 C5.705 26.4 6.035 28.05 6.375 29.75 C4.9209375 30.430625 4.9209375 30.430625 3.4375 31.125 C0.30420418 32.40786221 0.30420418 32.40786221 -0.625 34.75 C-2.33203125 35.75 -2.33203125 35.75 -4.4375 36.75 C-5.46810547 37.245 -5.46810547 37.245 -6.51953125 37.75 C-7.56173828 38.245 -7.56173828 38.245 -8.625 38.75 C-9.95971359 39.41389899 -11.29346683 40.0797451 -12.625 40.75 C-12.625 41.41 -12.625 42.07 -12.625 42.75 C-13.615 42.75 -14.605 42.75 -15.625 42.75 C-15.89792147 39.73736688 -15.91161186 38.18957887 -14.234375 35.6171875 C-13.62078125 34.95976563 -13.0071875 34.30234375 -12.375 33.625 C-11.77171875 32.96242187 -11.1684375 32.29984375 -10.546875 31.6171875 C-8.6763374 29.79987658 -6.74696216 28.26166331 -4.625 26.75 C-7.265 26.09 -9.905 25.43 -12.625 24.75 C-12.625 24.09 -12.625 23.43 -12.625 22.75 C-13.285 22.75 -13.945 22.75 -14.625 22.75 C-16.36078921 19.27842158 -16.10096426 15.54535135 -15.625 11.75 C-14.53446695 9.13081583 -13.23442098 7.11383707 -11.625 4.75 C-10.965 4.75 -10.305 4.75 -9.625 4.75 C-9.295 3.76 -8.965 2.77 -8.625 1.75 C-5.64477319 -0.27182788 -3.52102146 -0.44748768 0 0 Z " fill="#000000" transform="translate(81.625,91.25)"/>
<path d="M0 0 C0 0.66 0 1.32 0 2 C0.66 2 1.32 2 2 2 C2 2.99 2 3.98 2 5 C1.50113281 5.268125 1.00226563 5.53625 0.48828125 5.8125 C-11.25789015 12.19563529 -11.25789015 12.19563529 -22.26171875 19.7421875 C-24 21 -24 21 -26 21 C-26 21.66 -26 22.32 -26 23 C-26.99 23 -27.98 23 -29 23 C-28.67 21.02 -28.34 19.04 -28 17 C-27.34 17 -26.68 17 -26 17 C-25.7525 16.38125 -25.505 15.7625 -25.25 15.125 C-23.79371361 12.64931313 -22.62187494 12.04874998 -20 11 C-20 10.34 -20 9.68 -20 9 C-18.0135098 7.34508937 -16.04836374 5.85468543 -13.9375 4.375 C-13.09541992 3.74464844 -13.09541992 3.74464844 -12.23632812 3.1015625 C-8.07396825 0.17126115 -5.22054416 -0.46552623 0 0 Z " fill="#000000" transform="translate(98,124)"/>
</svg>
